<svg width="67" height="41" viewBox="0 0 67 41" fill="none" xmlns="http://www.w3.org/2000/svg">
<path d="M60.73 1.64808C55.9783 1.64808 48.9793 4.60181 41.5307 7.87661C40.5033 7.55555 39.4117 7.17028 38.3844 6.78501C27.0831 2.67547 15.3966 -1.5625 1.59111 1.58387L1.5269 1.64808L0.371094 4.60182L0.692152 4.40918C0.692152 4.40918 3.51746 2.80389 9.55335 2.61126C15.1398 2.48283 24.7073 3.51022 38.6412 9.16084C35.0454 10.7661 31.4495 12.3714 27.9821 13.6556C27.4684 13.3988 27.0189 13.142 26.5052 12.8209C21.3683 9.99559 16.8735 7.55555 13.0208 7.55555C10.2597 7.55555 8.01227 9.80295 8.01227 12.4998C8.01227 15.2609 10.2597 17.5083 13.0208 17.5083C17.3872 17.5083 22.5883 16.0315 27.9821 13.9767C30.9358 15.582 34.018 17.1873 37.357 18.5357C36.9717 18.7926 36.5864 18.9852 36.2012 19.1778C34.2748 20.3337 32.2843 21.4895 30.2937 22.4526C26.7621 20.5263 23.4873 18.921 20.662 18.921C18.864 18.921 17.3872 20.3979 17.3872 22.1316C17.3872 23.9295 18.864 25.4064 20.662 25.4064C23.9368 25.4064 27.1473 24.2506 30.2937 22.7095C30.8074 22.9663 31.7706 23.5442 31.7706 23.5442C33.5685 24.5716 35.4306 25.5348 37.2928 26.4338C36.3296 27.0117 35.3664 27.6538 34.4675 28.3601C33.4401 29.0022 32.4769 29.7085 31.5137 30.2865C29.1379 29.3233 26.8263 28.7454 25.542 28.7454C24.3862 28.7454 23.4231 29.7085 23.4231 30.8644C23.4231 32.0202 24.3862 32.9833 25.542 32.9833C27.34 32.9833 29.3947 31.956 31.5779 30.5433C32.5411 30.9928 33.5685 31.4423 34.5959 32.0202C36.9075 33.3044 40.8244 36.0013 40.8244 39.5329V39.6614L42.8792 40.0466L42.9434 39.9182C42.9434 39.854 43.2002 38.2487 42.1086 36.1939C41.0812 34.2676 38.7696 31.5707 33.1832 29.5159C33.6327 29.1949 34.1464 28.8738 34.5959 28.5527C35.5591 27.8464 36.5864 27.2043 37.5496 26.5622C40.1181 27.718 42.6865 28.5527 45.0624 28.5527C46.5392 28.5527 47.695 27.3327 47.695 25.9201C47.695 24.5074 46.5392 23.2874 45.0624 23.2874C42.7508 23.2874 40.1181 24.6358 37.5496 26.2411C35.6875 25.4064 33.7611 24.3148 31.899 23.2874C31.899 23.2874 31 22.8379 30.5505 22.5811C32.5411 21.6179 34.4675 20.5263 36.3296 19.4347C36.7791 19.1778 37.2286 18.921 37.6138 18.6642C41.7876 20.3337 46.2824 21.4895 51.1625 21.4895C53.4099 21.4895 55.2078 19.6915 55.2078 17.4441C55.2078 15.2609 53.4099 13.463 51.1625 13.463C46.6677 13.463 42.0444 15.8388 37.6138 18.4073C34.339 17.0589 31.1927 15.4536 28.3031 13.8483C32.0916 12.3714 36.0085 10.6377 39.8612 8.90399C40.3749 8.64715 40.9528 8.45451 41.5307 8.19766C48.0803 10.5093 54.373 12.4998 60.73 12.4998C64.7111 12.4998 66.8943 10.8303 66.8943 7.81239C66.8943 4.40918 64.1332 1.64808 60.73 1.64808ZM13.0208 17.2515C10.3881 17.2515 8.26912 15.1325 8.26912 12.4998C8.26912 9.93138 10.3881 7.81239 13.0208 7.81239C16.8093 7.81239 21.2399 10.2524 26.3768 13.0777C26.8263 13.3346 27.2115 13.5272 27.661 13.7841C22.3957 15.8388 17.323 17.2515 13.0208 17.2515ZM20.662 25.1495C18.9925 25.1495 17.644 23.8011 17.644 22.1316C17.644 20.5263 18.9925 19.1778 20.662 19.1778C23.3588 19.1778 26.5694 20.7189 30.0369 22.5811C26.9547 24.0579 23.8083 25.1495 20.662 25.1495ZM25.542 32.7265C24.5147 32.7265 23.6799 31.8917 23.6799 30.8644C23.6799 29.837 24.5147 29.0022 25.542 29.0022C26.7621 29.0022 28.9453 29.5159 31.2569 30.4791C29.1379 31.7633 27.2115 32.7265 25.542 32.7265ZM41.8518 36.2581C42.7507 37.9918 42.7507 39.3403 42.6865 39.7898L41.0812 39.4687C41.017 35.4876 36.2654 32.2128 31.8348 30.4149C32.22 30.158 32.5411 29.9012 32.9264 29.7085C38.5128 31.6991 40.8886 34.396 41.8518 36.2581ZM45.0624 23.5442C46.3466 23.5442 47.4382 24.6358 47.4382 25.9201C47.4382 27.2043 46.3466 28.2959 45.0624 28.2959C42.7508 28.2959 40.3107 27.4611 37.8707 26.3696C40.3749 24.8285 42.815 23.5442 45.0624 23.5442ZM51.1625 13.7199C53.2815 13.7199 54.951 15.3894 54.951 17.4441C54.951 19.4989 53.2815 21.2326 51.1625 21.2326C46.4108 21.2326 42.0444 20.0768 37.9349 18.5357C42.4297 15.9031 46.7319 13.7199 51.1625 13.7199ZM38.9623 9.03242C25.7347 3.63864 16.424 2.35441 10.7092 2.35441C10.2597 2.35441 9.87441 2.35441 9.55335 2.35441C4.48064 2.54705 1.71954 3.63864 0.884787 4.02391L1.71954 1.84072C15.3966 -1.30565 27.0831 2.93231 38.3202 7.04185C39.2833 7.36291 40.2465 7.68397 41.1455 8.06924C40.3749 8.3903 38.9623 9.03242 38.9623 9.03242ZM60.73 12.243C54.5015 12.243 48.2729 10.3166 41.8518 8.00503C49.2361 4.79445 56.0425 1.90493 60.73 1.90493C64.0048 1.90493 66.6375 4.5376 66.6375 7.81239C66.6375 11.4725 63.4269 12.243 60.73 12.243Z" fill="#333333"/>
</svg>
