<svg width="51" height="50" viewBox="0 0 51 50" fill="none" xmlns="http://www.w3.org/2000/svg">
<path d="M23.25 2.00005C22.9336 2.06255 22.668 2.26958 22.5312 2.56255L21.75 4.25005C21.3438 4.43365 16.2656 6.7149 13.0938 8.0938C12.7344 8.25396 12.5039 8.60943 12.5 9.00005C12.5 12.8126 14.1289 15.7774 15.6562 18.1876C17.1836 20.5977 18.5 22.5001 18.5 24.0001C18.5 24.418 18.3008 24.8204 17.7812 25.4688C17.2617 26.1172 16.4844 26.9297 15.6875 28.0626C14.0938 30.3282 12.5 33.8555 12.5 40C12.5 40.5508 12.9492 41 13.5 41H24.5V50H26.5V41H37.5C38.0508 41 38.5 40.5508 38.5 40C38.5 33.8555 36.9062 30.3282 35.3125 28.0626C34.5156 26.9297 33.7383 26.1172 33.2188 25.4688C32.6992 24.8204 32.5 24.418 32.5 24.0001C32.5 22.5001 33.8164 20.5977 35.3438 18.1876C36.8711 15.7774 38.5 12.8126 38.5 9.00005C38.4961 8.60943 38.2656 8.25396 37.9062 8.0938C34.7344 6.7149 29.6562 4.43365 29.25 4.25005L28.4688 2.56255C28.3008 2.2149 27.9492 1.99615 27.5625 2.00005H23.4375C23.4062 2.00005 23.375 2.00005 23.3438 2.00005C23.3125 2.00005 23.2812 2.00005 23.25 2.00005ZM24.0938 4.00005H26.9062L27.5938 5.43755C27.6992 5.64849 27.8789 5.81255 28.0938 5.9063C28.0938 5.9063 33.0156 8.12115 36.375 9.5938C36.207 12.5352 35.0312 14.9571 33.6562 17.1251C33.5469 17.2969 33.4219 17.4571 33.3125 17.6251C33.293 17.6329 33.2695 17.6446 33.25 17.6563C33.25 17.6563 32.5195 18.0001 31.5 18.0001C30.0586 18.0001 29.1875 17.2501 29.1875 17.2501C28.9531 17.0508 28.6445 16.9727 28.3438 17.0313C27.9648 17.1094 27.668 17.3946 27.5742 17.7696C27.4805 18.1407 27.6094 18.5352 27.9062 18.7813C27.9062 18.7813 29.3398 20.0001 31.5 20.0001C31.625 20.0001 31.7266 19.9766 31.8438 19.9688C31.082 21.2579 30.5 22.5508 30.5 24.0001C30.5 25.0821 31.0508 25.9571 31.6562 26.7188C32.2617 27.4805 32.9844 28.2227 33.6875 29.2188C35 31.086 36.2695 33.9063 36.4375 39H14.5625C14.7305 33.9063 16 31.086 17.3125 29.2188C18.0156 28.2227 18.7383 27.4805 19.3438 26.7188C19.9492 25.9571 20.5 25.0821 20.5 24.0001C20.5 22.5508 19.918 21.2579 19.1562 19.9688C19.2734 19.9766 19.375 20.0001 19.5 20.0001C21.6602 20.0001 23.0938 18.7813 23.0938 18.7813C23.4297 18.4922 23.5352 18.0196 23.3555 17.6172C23.1758 17.211 22.75 16.9727 22.3125 17.0313C22.1289 17.0547 21.957 17.1329 21.8125 17.2501C21.8125 17.2501 20.9414 18.0001 19.5 18.0001C18.4805 18.0001 17.75 17.6563 17.75 17.6563C17.7305 17.6446 17.707 17.6329 17.6875 17.6251C17.6836 17.6211 17.6602 17.629 17.6562 17.6251C17.5508 17.461 17.4492 17.293 17.3438 17.1251C15.9688 14.9571 14.793 12.5352 14.625 9.5938C17.9844 8.12115 22.9062 5.9063 22.9062 5.9063C23.1211 5.81255 23.3008 5.64849 23.4062 5.43755L24.0938 4.00005Z" fill="#A8715A"/>
</svg>
